<svg id="Groupe_5412" data-name="Groupe 5412" xmlns="http://www.w3.org/2000/svg" width="40" height="40" viewBox="0 0 40 40">
  <g id="Groupe_5411" data-name="Groupe 5411" transform="translate(0 0)">
    <circle id="Ellipse_20" data-name="Ellipse 20" cx="20" cy="20" r="20" fill="#0857e0"/>
    <path id="Tracé_10" data-name="Tracé 10" d="M-8.354-12.328V-9.4h4v1.728h-4v3.04h4.48v1.808H-10.61v-11.3h6.736v1.792Zm11.424.512a3.139,3.139,0,0,1,2.448,1.008A4.072,4.072,0,0,1,6.43-7.976v5.152H4.19v-4.9a2.315,2.315,0,0,0-.544-1.64,1.934,1.934,0,0,0-1.488-.584A1.99,1.99,0,0,0,.622-9.32,2.549,2.549,0,0,0,.046-7.528v4.7H-2.21v-8.864H.046v1.776a2.824,2.824,0,0,1,1.16-1.4A3.448,3.448,0,0,1,3.07-11.816Z" transform="translate(22.09 28.472)" fill="#f3f4f5"/>
  </g>
</svg>
