<svg xmlns="http://www.w3.org/2000/svg" width="50" height="50" viewBox="0 0 50 50">
  <g id="Groupe_6669" data-name="Groupe 6669" transform="translate(-1430 -336)">
    <circle id="Ellipse_27" data-name="Ellipse 27" cx="25" cy="25" r="25" transform="translate(1480 386) rotate(180)" fill="#fff"/>
    <g id="Group_6098" data-name="Group 6098" transform="translate(532.934 -56.558)">
      <path id="Tracé_15216" data-name="Tracé 15216" d="M917.066,423.449a5.653,5.653,0,0,0,4.261,3.995,5.723,5.723,0,0,0,1.136.114,5.586,5.586,0,0,0,3.554-9.886l-.019-.015a16.278,16.278,0,0,1-2.559-2.576,13.79,13.79,0,0,1-1.989-3.523,5.925,5.925,0,0,0-1,3.143,8.615,8.615,0,0,0,.606,2.513,4.447,4.447,0,0,1-.237,3.934,4.567,4.567,0,0,1-3.3,2.258,4.345,4.345,0,0,1-.454.038Z" transform="translate(0 -2)" fill="none" stroke="#1a2552" stroke-linecap="round" stroke-linejoin="round" stroke-width="2"/>
    </g>
  </g>
</svg>
