<svg xmlns="http://www.w3.org/2000/svg" width="50" height="50" viewBox="0 0 50 50">
  <g id="Groupe_6733" data-name="Groupe 6733" transform="translate(-530 -240)">
    <circle id="Ellipse_27" data-name="Ellipse 27" cx="25" cy="25" r="25" transform="translate(580 290) rotate(180)" fill="#fff"/>
    <g id="Groupe_6074" data-name="Groupe 6074" transform="translate(-295.163 -708.326)">
      <g id="Groupe_6074-2" data-name="Groupe 6074" transform="translate(841.163 964.326)">
        <path id="Tracé_15140" data-name="Tracé 15140" d="M958.163,1084.326h-10a3.6,3.6,0,0,1-3.5-3.685v-4.259a3.768,3.768,0,0,1,1-2.58l5-5.371a3.379,3.379,0,0,1,5,0l5,5.371a3.768,3.768,0,0,1,1,2.58v4.259A3.6,3.6,0,0,1,958.163,1084.326Zm-5-15a1.411,1.411,0,0,0-1.036.468l-5,5.371a1.8,1.8,0,0,0-.464,1.217v4.259a1.6,1.6,0,0,0,1.5,1.685h10a1.6,1.6,0,0,0,1.5-1.685v-4.259a1.8,1.8,0,0,0-.464-1.217l-5-5.371A1.411,1.411,0,0,0,953.163,1069.326Z" transform="translate(-944.663 -1067.326)" fill="#1a2552"/>
      </g>
    </g>
  </g>
</svg>
