<svg id="Groupe_6456" data-name="Groupe 6456" xmlns="http://www.w3.org/2000/svg" width="123.599" height="40" viewBox="0 0 123.599 40">
  <path id="Tracé_1916" data-name="Tracé 1916" d="M391.405,440.059c0,3.279-2.36,5.44-6.037,5.44h-3.354v6.583h-3.7V434.619h7.056c3.7,0,6.037,2.136,6.037,5.44m-3.752,0a2.172,2.172,0,0,0-2.484-2.211h-3.155v4.422h3.155a2.172,2.172,0,0,0,2.484-2.211" transform="translate(-333.31 -424.584)" fill="#1a2552"/>
  <path id="Tracé_1917" data-name="Tracé 1917" d="M471.014,473.477a2.857,2.857,0,0,0,2.87-1.542l2.68,1.779c-.973,1.423-2.586,2.68-5.645,2.68a6.339,6.339,0,0,1-6.689-6.546,6.479,6.479,0,0,1,6.452-6.546,6.263,6.263,0,0,1,6.428,6.285,9.64,9.64,0,0,1-.071,1.328h-9.369a3.254,3.254,0,0,0,3.345,2.561m2.8-4.862a3,3,0,0,0-3.036-2.657,3.075,3.075,0,0,0-3.155,2.657Z" transform="translate(-406.133 -448.895)" fill="#1a2552"/>
  <path id="Tracé_1918" data-name="Tracé 1918" d="M571.778,469.846a6.215,6.215,0,0,1-6.216,6.547,4.964,4.964,0,0,1-3.582-1.352v6.351h-3.511V463.3h3.25v1.66a5.1,5.1,0,0,1,3.938-1.661c3.606,0,6.121,2.8,6.121,6.547m-3.487,0a3.242,3.242,0,0,0-3.2-3.464,3.461,3.461,0,1,0,3.2,3.464" transform="translate(-486.009 -448.893)" fill="#1a2552"/>
  <path id="Tracé_1919" data-name="Tracé 1919" d="M652.982,469.848a6.764,6.764,0,1,1,6.76,6.546,6.438,6.438,0,0,1-6.76-6.546m10.01-.024a3.242,3.242,0,1,0-6.475.024,3.243,3.243,0,1,0,6.475-.024" transform="translate(-566.117 -448.895)" fill="#1a2552"/>
  <rect id="Rectangle_377" data-name="Rectangle 377" width="3.45" height="17.465" transform="translate(102.039 10.035)" fill="#1a2552"/>
  <rect id="Rectangle_378" data-name="Rectangle 378" width="3.45" height="17.465" transform="translate(107.959 10.035)" fill="#1a2552"/>
  <path id="Tracé_1920" data-name="Tracé 1920" d="M823.49,473.089l2.965-1.138a2.483,2.483,0,0,0,2.633,1.731c1.044,0,1.661-.427,1.661-1.138,0-2.182-6.666-1.139-6.666-5.432,0-2.372,1.945-3.819,4.982-3.819,2.491,0,4.294,1.02,4.815,2.752l-2.965,1.138a1.857,1.857,0,0,0-1.9-1.281c-.949,0-1.471.38-1.471,1.02,0,2.016,6.69.806,6.69,5.408,0,2.514-2.064,4.056-5.266,4.056-2.775,0-4.768-1.139-5.48-3.3" transform="translate(-710.638 -448.888)" fill="#1a2552"/>
  <path id="Tracé_1921" data-name="Tracé 1921" d="M108.044,408.776h-10a15,15,0,0,1-15-15v-10a15,15,0,0,1,15-15h10a15,15,0,0,1,15,15v10a15,15,0,0,1-15,15" transform="translate(-83.044 -368.776)" fill="#0857e0"/>
  <path id="Tracé_1922" data-name="Tracé 1922" d="M153.656,442.985a2.5,2.5,0,0,1-2.5-2.5v-2.5a7.508,7.508,0,0,1,7.5-7.5h2.5a2.5,2.5,0,0,0,2.5-2.5v-2.5a2.5,2.5,0,0,0-2.5-2.5h-5a2.5,2.5,0,0,0-2.5,2.5v2.5a2.5,2.5,0,0,1-5,0v-2.5a7.509,7.509,0,0,1,7.5-7.5h5a7.509,7.509,0,0,1,7.5,7.5v2.5a7.509,7.509,0,0,1-7.5,7.5h-2.5a2.5,2.5,0,0,0-2.5,2.5v2.5a2.5,2.5,0,0,1-2.5,2.5" transform="translate(-138.656 -410.485)" fill="#fff"/>
</svg>
