<svg id="Groupe_6759" data-name="Groupe 6759" xmlns="http://www.w3.org/2000/svg" width="40" height="40" viewBox="0 0 40 40">
  <circle id="Ellipse_396" data-name="Ellipse 396" cx="20" cy="20" r="20" fill="#fff" opacity="0"/>
  <g id="Groupe_5656" data-name="Groupe 5656" transform="translate(12 12)">
    <g id="Groupe_5655" data-name="Groupe 5655" transform="translate(0 0)">
      <g id="Groupe_5654" data-name="Groupe 5654">
        <g id="Groupe_5652" data-name="Groupe 5652">
          <path id="Tracé_1938" data-name="Tracé 1938" d="M952.019,1082.033a7.358,7.358,0,1,1,7.358-7.358A7.366,7.366,0,0,1,952.019,1082.033Zm0-12.735a5.377,5.377,0,1,0,5.377,5.377A5.383,5.383,0,0,0,952.019,1069.3Z" transform="translate(-944.661 -1067.318)" fill="#1a2552"/>
        </g>
        <g id="Groupe_5653" data-name="Groupe 5653" transform="translate(12.735 12.734)">
          <path id="Tracé_1939" data-name="Tracé 1939" d="M1076.349,1200a.987.987,0,0,1-.7-.29l-2.123-2.123a.99.99,0,0,1,1.4-1.4l2.123,2.123a.99.99,0,0,1-.7,1.691Z" transform="translate(-1073.236 -1195.893)" fill="#1a2552"/>
        </g>
      </g>
    </g>
  </g>
</svg>
