<svg xmlns="http://www.w3.org/2000/svg" width="80.6" height="74.6" viewBox="0 0 80.6 74.6">
  <g id="MetaMask_Fox" transform="translate(-31.5 -35.2)">
    <path id="Tracé_1987" data-name="Tracé 1987" d="M205.816,35.5,174.6,58.684l5.773-13.678Z" transform="translate(-98)" fill="#0857e0" stroke="#fff" stroke-linecap="round" stroke-linejoin="round" stroke-width="0.6"/>
    <g id="Groupe_5786" data-name="Groupe 5786" transform="translate(32.459 35.5)">
      <path id="Tracé_1988" data-name="Tracé 1988" d="M44.4,35.5,75.365,58.9l-5.49-13.9Z" transform="translate(-41.106 -35.5)" fill="#0857e0" stroke="#fff" stroke-linecap="round" stroke-linejoin="round" stroke-width="0.6"/>
      <path id="Tracé_1989" data-name="Tracé 1989" d="M220.114,206.8,211.8,219.537l17.788,4.894,5.114-17.349Z" transform="translate(-155.988 -153.223)" fill="#0857e0" stroke="#fff" stroke-linecap="round" stroke-linejoin="round" stroke-width="0.6"/>
      <path id="Tracé_1990" data-name="Tracé 1990" d="M33.9,207.082l5.082,17.349,17.788-4.894L48.457,206.8Z" transform="translate(-33.9 -153.223)" fill="#0857e0" stroke="#fff" stroke-linecap="round" stroke-linejoin="round" stroke-width="0.6"/>
      <path id="Tracé_1991" data-name="Tracé 1991" d="M92.757,114.8,87.8,122.3l17.663.784-.627-18.98Z" transform="translate(-70.89 -82.646)" fill="#0857e0" stroke="#fff" stroke-linecap="round" stroke-linejoin="round" stroke-width="0.6"/>
      <path id="Tracé_1992" data-name="Tracé 1992" d="M187.243,114.318,175.008,103.4l-.408,19.2,17.631-.784Z" transform="translate(-130.459 -82.165)" fill="#0857e0" stroke="#fff" stroke-linecap="round" stroke-linejoin="round" stroke-width="0.6"/>
      <path id="Tracé_1993" data-name="Tracé 1993" d="M106.8,220.429l10.6-5.176-9.161-7.153Z" transform="translate(-83.929 -154.116)" fill="#0857e0" stroke="#fff" stroke-linecap="round" stroke-linejoin="round" stroke-width="0.6"/>
      <path id="Tracé_1994" data-name="Tracé 1994" d="M177.9,215.253l10.635,5.176L187.061,208.1Z" transform="translate(-132.723 -154.116)" fill="#0857e0" stroke="#fff" stroke-linecap="round" stroke-linejoin="round" stroke-width="0.6"/>
    </g>
    <g id="Groupe_5787" data-name="Groupe 5787" transform="translate(55.329 96.637)">
      <path id="Tracé_1995" data-name="Tracé 1995" d="M188.535,236.076,177.9,230.9l.847,6.933-.094,2.918Z" transform="translate(-155.594 -230.9)" fill="#0857e0" stroke="#fff" stroke-linecap="round" stroke-linejoin="round" stroke-width="0.6"/>
      <path id="Tracé_1996" data-name="Tracé 1996" d="M106.8,236.076l9.882,4.675-.063-2.918.784-6.933Z" transform="translate(-106.8 -230.9)" fill="#0857e0" stroke="#fff" stroke-linecap="round" stroke-linejoin="round" stroke-width="0.6"/>
    </g>
    <path id="Tracé_1997" data-name="Tracé 1997" d="M119.447,181.559l-8.847-2.6,6.243-2.855Z" transform="translate(-54.078 -96.596)" fill="#fff" stroke="#fff" stroke-linecap="round" stroke-linejoin="round" stroke-width="0.6"/>
    <path id="Tracé_1998" data-name="Tracé 1998" d="M179.7,181.559l2.6-5.459,6.275,2.855Z" transform="translate(-101.5 -96.596)" fill="#fff" stroke="#fff" stroke-linecap="round" stroke-linejoin="round" stroke-width="0.6"/>
    <g id="Groupe_5788" data-name="Groupe 5788" transform="translate(47.016 75.053)">
      <path id="Tracé_1999" data-name="Tracé 1999" d="M88.614,219.537,90.12,206.8l-9.82.282Z" transform="translate(-80.3 -192.776)" fill="#0857e0" stroke="#fff" stroke-linecap="round" stroke-linejoin="round" stroke-width="0.6"/>
      <path id="Tracé_2000" data-name="Tracé 2000" d="M207,206.8l1.506,12.737,8.314-12.455Z" transform="translate(-167.251 -192.776)" fill="#0857e0" stroke="#fff" stroke-linecap="round" stroke-linejoin="round" stroke-width="0.6"/>
      <path id="Tracé_2001" data-name="Tracé 2001" d="M192.231,162.1l-17.631.784,1.631,9.067,2.6-5.459,6.275,2.855Z" transform="translate(-145.016 -162.1)" fill="#0857e0" stroke="#fff" stroke-linecap="round" stroke-linejoin="round" stroke-width="0.6"/>
      <path id="Tracé_2002" data-name="Tracé 2002" d="M94.953,169.347l6.275-2.855,2.573,5.459,1.663-9.067L87.8,162.1Z" transform="translate(-85.447 -162.1)" fill="#0857e0" stroke="#fff" stroke-linecap="round" stroke-linejoin="round" stroke-width="0.6"/>
    </g>
    <g id="Groupe_5789" data-name="Groupe 5789" transform="translate(49.369 75.096)">
      <path id="Tracé_2003" data-name="Tracé 2003" d="M87.8,162.1l7.4,14.431-.251-7.184Z" transform="translate(-87.8 -162.1)" fill="#0857e0" stroke="#fff" stroke-linecap="round" stroke-linejoin="round" stroke-width="0.6"/>
      <path id="Tracé_2004" data-name="Tracé 2004" d="M207.414,169.347l-.314,7.184,7.435-14.431Z" transform="translate(-169.673 -162.1)" fill="#0857e0" stroke="#fff" stroke-linecap="round" stroke-linejoin="round" stroke-width="0.6"/>
      <path id="Tracé_2005" data-name="Tracé 2005" d="M140.463,164.6l-1.663,9.067,2.071,10.7.471-14.086Z" transform="translate(-122.8 -163.816)" fill="#0857e0" stroke="#fff" stroke-linecap="round" stroke-linejoin="round" stroke-width="0.6"/>
      <path id="Tracé_2006" data-name="Tracé 2006" d="M172.747,164.6l-.847,5.647.376,14.118,2.1-10.7Z" transform="translate(-145.516 -163.816)" fill="#0857e0" stroke="#fff" stroke-linecap="round" stroke-linejoin="round" stroke-width="0.6"/>
    </g>
    <path id="Tracé_2007" data-name="Tracé 2007" d="M175.2,187.8l-2.1,10.7,1.506,1.035,9.161-7.153.314-7.184Z" transform="translate(-96.971 -102.865)" fill="#0857e0" stroke="#fff" stroke-linecap="round" stroke-linejoin="round" stroke-width="0.6"/>
    <path id="Tracé_2008" data-name="Tracé 2008" d="M110.6,185.2l.251,7.184,9.161,7.153,1.506-1.035-2.071-10.7Z" transform="translate(-54.078 -102.865)" fill="#0857e0" stroke="#fff" stroke-linecap="round" stroke-linejoin="round" stroke-width="0.6"/>
    <path id="Tracé_2009" data-name="Tracé 2009" d="M129.859,252.074l.094-2.918-.784-.69H117.341l-.722.69.063,2.918L106.8,247.4l3.451,2.824,7,4.863h12.016l7.027-4.863,3.451-2.824Z" transform="translate(-51.471 -145.586)" fill="#0857e0" stroke="#fff" stroke-linecap="round" stroke-linejoin="round" stroke-width="0.6"/>
    <path id="Tracé_2010" data-name="Tracé 2010" d="M150.586,228.635,149.08,227.6h-8.69l-1.506,1.035-.784,6.933.722-.69h11.827l.784.69Z" transform="translate(-72.951 -131.998)" fill="#0857e0" stroke="#fff" stroke-linecap="round" stroke-linejoin="round" stroke-width="0.6"/>
    <g id="Groupe_5790" data-name="Groupe 5790" transform="translate(31.8 35.5)">
      <path id="Tracé_2011" data-name="Tracé 2011" d="M209.4,60.19l2.667-12.8L208.08,35.5,177.9,57.9l11.608,9.82,16.408,4.8,3.639-4.235-1.569-1.129,2.51-2.29-1.945-1.506,2.51-1.914Z" transform="translate(-132.065 -35.5)" fill="#0857e0" stroke="#fff" stroke-linecap="round" stroke-linejoin="round" stroke-width="0.6"/>
      <path id="Tracé_2012" data-name="Tracé 2012" d="M31.8,47.39l2.667,12.8-1.694,1.255,2.51,1.914-1.914,1.506,2.51,2.29L34.31,68.284l3.608,4.235,16.408-4.8L65.933,57.9,35.753,35.5Z" transform="translate(-31.8 -35.5)" fill="#0857e0" stroke="#fff" stroke-linecap="round" stroke-linejoin="round" stroke-width="0.6"/>
    </g>
    <path id="Tracé_2013" data-name="Tracé 2013" d="M225.955,143l-16.408-4.8,4.988,7.5L207.1,160.129l9.788-.126h14.588Z" transform="translate(-120.304 -70.582)" fill="#0857e0" stroke="#fff" stroke-linecap="round" stroke-linejoin="round" stroke-width="0.6"/>
    <path id="Tracé_2014" data-name="Tracé 2014" d="M55.767,138.2,39.359,143,33.9,160H48.457l9.757.126L50.81,145.7Z" transform="translate(-1.441 -70.582)" fill="#0857e0" stroke="#fff" stroke-linecap="round" stroke-linejoin="round" stroke-width="0.6"/>
    <path id="Tracé_2015" data-name="Tracé 2015" d="M140.973,96.8l1.035-18.1L146.776,65.8H125.6l4.706,12.894,1.1,18.1.376,5.71.031,14.055h8.69l.063-14.055Z" transform="translate(-64.373 -20.794)" fill="#0857e0" stroke="#fff" stroke-linecap="round" stroke-linejoin="round" stroke-width="0.6"/>
  </g>
</svg>
