<svg id="Composant_122_1" data-name="Composant 122 – 1" xmlns="http://www.w3.org/2000/svg" width="50" height="50" viewBox="0 0 50 50">
  <g id="Groupe_5779" data-name="Groupe 5779" transform="translate(-823.663 -947.604)">
    <circle id="Ellipse_274" data-name="Ellipse 274" cx="25" cy="25" r="25" transform="translate(823.663 947.604)" fill="#fff"/>
    <g id="Tracé_1002" data-name="Tracé 1002" transform="translate(840.239 963.915)">
      <g id="Groupe_5779-2" data-name="Groupe 5779" transform="translate(0 0)">
        <path id="Tracé_1957" data-name="Tracé 1957" d="M955.43,1084.438a3.433,3.433,0,0,1-3.154-2.089l-1.531-3.515a.91.91,0,0,0-.473-.474l-3.54-1.542a3.427,3.427,0,0,1,.184-6.367l.036-.013c.06-.021.126-.041.189-.059l10.259-2.923h0l.04-.011a3.434,3.434,0,0,1,4.2,4.246l-2.926,10.272c-.014.052-.033.111-.052.168-.005.016-.012.035-.019.053a3.431,3.431,0,0,1-3.219,2.254Zm2.483-15.034-10.225,2.914-.085.026a1.414,1.414,0,0,0-.074,2.625l3.548,1.546a2.917,2.917,0,0,1,1.515,1.516l1.534,3.523a1.413,1.413,0,0,0,2.633-.061c.007-.022.016-.048.023-.075l2.927-10.277a1.421,1.421,0,0,0-1.723-1.759l-.033.012Z" transform="translate(-944.662 -1067.325)" fill="#1a2552"/>
      </g>
    </g>
  </g>
</svg>
