<svg id="Composant_123_1" data-name="Composant 123 – 1" xmlns="http://www.w3.org/2000/svg" width="50" height="50" viewBox="0 0 50 50">
  <circle id="Ellipse_391" data-name="Ellipse 391" cx="25" cy="25" r="25" fill="#fff"/>
  <g id="Groupe_6644" data-name="Groupe 6644" transform="translate(5 5)">
    <path id="Tracé_15222" data-name="Tracé 15222" d="M5590.648,2873.939l-.9-4.509h0l-.2-.982a5,5,0,0,0-4.9-4.02h-1.8a5,5,0,0,0-4.9,4.02l-.2.982h0l-.9,4.509a2.5,2.5,0,0,0,2.452,2.991h8.905A2.5,2.5,0,0,0,5590.648,2873.939Z" transform="translate(-5563.74 -2851.926)" fill="none" stroke="#1a2552" stroke-linecap="round" stroke-linejoin="round" stroke-width="2"/>
    <path id="Tracé_15223" data-name="Tracé 15223" d="M5621.39,2989.557a3.116,3.116,0,1,1-6.232,0" transform="translate(-5598.27 -2964.539)" fill="none" stroke="#1a2552" stroke-miterlimit="10" stroke-width="2"/>
  </g>
  <circle id="Ellipse_392" data-name="Ellipse 392" cx="2.5" cy="2.5" r="2.5" transform="translate(27.456 15)" fill="#e40334" opacity="0"/>
</svg>
