<svg xmlns="http://www.w3.org/2000/svg" width="50" height="50" viewBox="0 0 40 40">
  <g id="Groupe_6041" data-name="Groupe 6041" transform="translate(-8776 -10428)">
    <circle id="Ellipse_27" data-name="Ellipse 27" cx="20" cy="20" r="20" transform="translate(8816 10468) rotate(180)" fill="#f3f4f5" opacity="0.25"/>
    <g id="Groupe_5773" data-name="Groupe 5773" transform="translate(8780.035 10432.035)">
      <circle id="Ellipse_273" data-name="Ellipse 273" cx="16" cy="16" r="16" transform="translate(-0.035 -0.035)" fill="#e40334"/>
      <path id="Tracé_1956" data-name="Tracé 1956" d="M7984.957,454.909l3.5-3.492a.814.814,0,1,0-1.15-1.152l-3.5,3.491-3.494-3.5a.814.814,0,0,0-1.152,1.15l3.494,3.5-3.5,3.491a.814.814,0,1,0,1.149,1.152l3.5-3.492,3.489,3.5a.814.814,0,0,0,1.152-1.149Z" transform="translate(-7967.529 -438.633)" fill="#fff"/>
    </g>
  </g>
</svg>
