<svg xmlns="http://www.w3.org/2000/svg" width="60" height="60" viewBox="0 0 60 60">
  <g id="Groupe_6166" data-name="Groupe 6166" transform="translate(-25 -630)">
    <g id="Groupe_6156" data-name="Groupe 6156" transform="translate(25 630)">
      <rect id="Rectangle_1196" data-name="Rectangle 1196" width="60" height="60" rx="10" transform="translate(0 0)" fill="#f3f4f5"/>
    </g>
    <g id="Groupe_6165" data-name="Groupe 6165" transform="translate(44.606 649.605)">
      <path id="Tracé_15164" data-name="Tracé 15164" d="M4952.314,3796.294h-12.229a4.285,4.285,0,0,0-4.28,4.28V3812.8a4.285,4.285,0,0,0,4.28,4.28h12.229a4.285,4.285,0,0,0,4.28-4.28v-12.228A4.285,4.285,0,0,0,4952.314,3796.294Zm-14.062,16.508v-12.228a1.836,1.836,0,0,1,1.834-1.834h12.229a1.836,1.836,0,0,1,1.834,1.834v4.966a10.412,10.412,0,0,0-9.1,9.1h-4.966A1.837,1.837,0,0,1,4938.252,3812.8Zm14.063,1.834h-4.8a7.967,7.967,0,0,1,6.631-6.631v4.8A1.837,1.837,0,0,1,4952.314,3814.636Z" transform="translate(-4935.806 -3796.294)" fill="#fff"/>
      <path id="Tracé_15165" data-name="Tracé 15165" d="M4976.652,3832.861a4.28,4.28,0,1,0-4.281,4.28A4.285,4.285,0,0,0,4976.652,3832.861Zm-6.114,0a1.834,1.834,0,1,1,1.833,1.834A1.836,1.836,0,0,1,4970.538,3832.861Z" transform="translate(-4964.145 -3824.633)" fill="#fff"/>
    </g>
  </g>
</svg>
