<svg xmlns="http://www.w3.org/2000/svg" width="50" height="50" viewBox="0 0 50 50">
  <g id="Groupe_6668" data-name="Groupe 6668" transform="translate(-1335 -336)">
    <g id="Groupe_6670" data-name="Groupe 6670">
      <circle id="Ellipse_27" data-name="Ellipse 27" cx="25" cy="25" r="25" transform="translate(1385 386) rotate(180)" fill="#fff"/>
      <g id="Groupe_6070" data-name="Groupe 6070" transform="translate(-8428.477 696.801)">
        <g id="Groupe_6072" data-name="Groupe 6072" transform="translate(9780.477 -344.801)">
          <g id="Groupe_6070-2" data-name="Groupe 6070" transform="translate(0 0)">
            <path id="Tracé_15135" data-name="Tracé 15135" d="M9891.4-226.451a7.438,7.438,0,0,1-7.429-7.429,7.437,7.437,0,0,1,7.429-7.429,7.438,7.438,0,0,1,7.43,7.429A7.438,7.438,0,0,1,9891.4-226.451Zm0-12.857a5.435,5.435,0,0,0-5.429,5.429,5.435,5.435,0,0,0,5.429,5.429,5.435,5.435,0,0,0,5.429-5.429A5.435,5.435,0,0,0,9891.4-239.308Z" transform="translate(-9883.976 241.308)" fill="#1a2552"/>
          </g>
          <g id="Groupe_6071" data-name="Groupe 6071" transform="translate(12.857 12.857)">
            <path id="Tracé_15136" data-name="Tracé 15136" d="M10015.7-108.59a1,1,0,0,1-.708-.293l-2.142-2.143a1,1,0,0,1,0-1.414,1,1,0,0,1,1.413,0l2.143,2.143a1,1,0,0,1,0,1.414A1,1,0,0,1,10015.7-108.59Z" transform="translate(-10012.553 112.734)" fill="#1a2552"/>
          </g>
        </g>
      </g>
    </g>
  </g>
</svg>
