<svg xmlns="http://www.w3.org/2000/svg" width="40" height="40" viewBox="0 0 28 28">
  <g id="Groupe_6280" data-name="Groupe 6280" transform="translate(0 -0.001)">
    <circle id="Ellipse_326" data-name="Ellipse 326" cx="14" cy="14" r="14" transform="translate(0 0.001)" fill="#0857e0" opacity="1"/>
    <g id="Groupe_6098" data-name="Groupe 6098" transform="translate(9.454 7.832)">
      <path id="Tracé_15158" data-name="Tracé 15158" d="M-12.317-382.189a4.392,4.392,0,0,1-.865-.087,4.27,4.27,0,0,1-2.549-1.61,4.255,4.255,0,0,1-.877-2.527.633.633,0,0,1,.269-.527.633.633,0,0,1,.587-.074,1.17,1.17,0,0,0,.582.063,1.2,1.2,0,0,0,.863-.591,1.146,1.146,0,0,0,.063-1.013,5.845,5.845,0,0,1-.426-1.807v-.053a4.567,4.567,0,0,1,1.7-3.437.633.633,0,0,1,.624-.113.632.632,0,0,1,.409.485,5.79,5.79,0,0,0,1.153,2.513A7.558,7.558,0,0,0-9.6-389.779l.011.008A4.263,4.263,0,0,1-8.077-385.9,4.3,4.3,0,0,1-12.317-382.189Zm-2.917-3.487a3.044,3.044,0,0,0,.511,1.024,3,3,0,0,0,1.792,1.135,3.128,3.128,0,0,0,.614.062,3.026,3.026,0,0,0,2.985-2.615A3,3,0,0,0-10.4-388.8l-.01-.008A8.791,8.791,0,0,1-11.79-390.2a7.467,7.467,0,0,1-1.075-1.9,3.2,3.2,0,0,0-.54,1.7,4.664,4.664,0,0,0,.328,1.359,2.4,2.4,0,0,1-.128,2.126,2.469,2.469,0,0,1-1.783,1.22A2.371,2.371,0,0,1-15.234-385.675Z" transform="translate(16.608 394.003)" fill="#fff"/>
    </g>
  </g>
</svg>
