<svg id="Composant_68_1" data-name="Composant 68 – 1" xmlns="http://www.w3.org/2000/svg" width="40" height="40" viewBox="0 0 40 40">
  <circle id="Ellipse_354" data-name="Ellipse 354" cx="20" cy="20" r="20" fill="#fff"/>
  <g id="Group_6098" data-name="Group 6098" transform="translate(-902.209 -399.059)">
    <path id="Tracé_15216" data-name="Tracé 15216" d="M917.066,422.706a5.3,5.3,0,0,0,3.995,3.745,5.365,5.365,0,0,0,1.065.107,5.237,5.237,0,0,0,3.332-9.268l-.018-.014a15.261,15.261,0,0,1-2.4-2.415,12.928,12.928,0,0,1-1.865-3.3,5.555,5.555,0,0,0-.937,2.947,8.077,8.077,0,0,0,.568,2.356,4.169,4.169,0,0,1-.222,3.688,4.281,4.281,0,0,1-3.093,2.117,4.075,4.075,0,0,1-.426.036Z" fill="none" stroke="#1a2552" stroke-linecap="round" stroke-linejoin="round" stroke-width="2"/>
  </g>
</svg>
